grf
version=1
nRows=11
nColumns=37
inDegrees=no
endheader
time	ground_force_1_vx	ground_force_1_vy	ground_force_1_vz	ground_force_1_px	ground_force_1_py	ground_force_1_pz	ground_moment_1_mx	ground_moment_1_my	ground_moment_1_mz	ground_force_2_vx	ground_force_2_vy	ground_force_2_vz	ground_force_2_px	ground_force_2_py	ground_force_2_pz	ground_moment_2_mx	ground_moment_2_my	ground_moment_2_mz	ground_force_3_vx	ground_force_3_vy	ground_force_3_vz	ground_force_3_px	ground_force_3_py	ground_force_3_pz	ground_moment_3_mx	ground_moment_3_my	ground_moment_3_mz	ground_force_4_vx	ground_force_4_vy	ground_force_4_vz	ground_force_4_px	ground_force_4_py	ground_force_4_pz	ground_moment_4_mx	ground_moment_4_my	ground_moment_4_mz
      1.97000000	      0.00000000	     -0.00000000	      0.00000000	      0.00000000	      0.00000000	      0.00000000	      0.00000000	      0.00000000	      0.00000000	    -24.42804718	     28.62647820	   -549.26947021	   -249.13181360	  -1043.11500494	      0.00000000	      0.00000000	      0.00000000	    192.06429344	     13.49723725	    -53.97770046	   -513.84722900	   -248.56103696	   -731.16908544	      0.00000000	      0.00000000	     -0.00000000	   -338.07965352	      0.00000000	     -0.00000000	      0.00000000	      0.00000000	      0.00000000	      0.00000000	      0.00000000	      0.00000000	      0.00000000
      1.98000000	      0.00000000	     -0.00000000	      0.00000000	      0.00000000	      0.00000000	      0.00000000	      0.00000000	      0.00000000	      0.00000000	    -22.60204887	     29.91605377	   -590.03784180	   -252.04507788	  -1042.53051045	      0.00000000	      0.00000000	      0.00000000	    220.41068766	     15.34696163	    -47.55058041	   -475.40731812	   -245.67486980	   -731.88588296	      0.00000000	      0.00000000	     -0.00000000	   -354.35543657	      0.00000000	     -0.00000000	      0.00000000	      0.00000000	      0.00000000	      0.00000000	      0.00000000	      0.00000000	      0.00000000
      1.99000000	      0.00000000	     -0.00000000	      0.00000000	      0.00000000	      0.00000000	      0.00000000	      0.00000000	      0.00000000	      0.00000000	    -20.51034927	     29.51022339	   -631.80883789	   -254.45949962	  -1042.17344987	      0.00000000	      0.00000000	      0.00000000	    488.23294359	     16.13165701	    -39.43240116	   -430.31658936	   -242.94417171	   -732.96479957	      0.00000000	      0.00000000	     -0.00000000	   -481.08826745	      0.00000000	     -0.00000000	      0.00000000	      0.00000000	      0.00000000	      0.00000000	      0.00000000	      0.00000000	      0.00000000
      2.00000000	      0.00000000	     -0.00000000	      0.00000000	      0.00000000	      0.00000000	      0.00000000	      0.00000000	      0.00000000	      0.00000000	    -18.02872276	     28.95918846	   -670.39660645	   -257.47210477	  -1041.33065016	      0.00000000	      0.00000000	      0.00000000	    991.85636940	     15.79051699	    -31.17755646	   -377.16616821	   -239.45077392	   -732.58239101	      0.00000000	      0.00000000	     -0.00000000	   -585.87784581	      0.00000000	     -0.00000000	      0.00000000	      0.00000000	      0.00000000	      0.00000000	      0.00000000	      0.00000000	      0.00000000
      2.01000000	      0.00000000	     -0.00000000	      0.00000000	      0.00000000	      0.00000000	      0.00000000	      0.00000000	      0.00000000	      0.00000000	    -15.62014294	     29.39644051	   -713.93261719	   -260.40324895	  -1041.61002617	      0.00000000	      0.00000000	     -0.00000000	   1224.56551704	     15.52438540	    -22.40887587	   -316.84786987	   -235.33357828	   -731.79336294	      0.00000000	      0.00000000	     -0.00000000	   -467.57964758	      0.00000000	     -0.00000000	      0.00000000	      0.00000000	      0.00000000	      0.00000000	      0.00000000	      0.00000000	      0.00000000
      2.02000000	      0.00000000	     -0.00000000	      0.00000000	      0.00000000	      0.00000000	      0.00000000	      0.00000000	      0.00000000	      0.00000000	    -13.39001083	     29.93938828	   -757.80987549	   -263.27238311	  -1041.83379525	      0.00000000	      0.00000000	      0.00000000	   1522.24716546	     12.81764273	    -15.94100587	   -253.71125793	   -230.19316136	   -732.50862543	      0.00000000	      0.00000000	     -0.00000000	   -332.93621546	      0.00000000	     -0.00000000	      0.00000000	      0.00000000	      0.00000000	      0.00000000	      0.00000000	      0.00000000	      0.00000000
      2.03000000	      0.00000000	     -0.00000000	      0.00000000	      0.00000000	      0.00000000	      0.00000000	      0.00000000	      0.00000000	      0.00000000	    -11.19408512	     33.08813477	   -803.95361328	   -265.87426518	  -1040.95158084	      0.00000000	      0.00000000	      0.00000000	   1854.60344163	      8.98912718	    -10.70153029	   -195.14414978	   -224.71158498	   -736.92552293	      0.00000000	     -0.00000000	     -0.00000000	   -454.80539310	      0.00000000	     -0.00000000	      0.00000000	      0.00000000	      0.00000000	      0.00000000	      0.00000000	      0.00000000	      0.00000000
      2.04000000	      0.00000000	     -0.00000000	      0.00000000	      0.00000000	      0.00000000	      0.00000000	      0.00000000	      0.00000000	      0.00000000	     -9.35841942	     36.60657120	   -853.00769043	   -268.04254477	  -1041.71399155	      0.00000000	      0.00000000	      0.00000000	   1815.38545643	      5.29279114	     -8.02984284	   -148.33404541	   -220.58139701	   -732.64744749	      0.00000000	      0.00000000	     -0.00000000	   -114.94944414	      0.00000000	     -0.00000000	      0.00000000	      0.00000000	      0.00000000	      0.00000000	      0.00000000	      0.00000000	      0.00000000
      2.05000000	      0.00000000	     -0.00000000	      0.00000000	      0.00000000	      0.00000000	      0.00000000	      0.00000000	      0.00000000	      0.00000000	     -6.96721888	     38.87843704	   -901.35479736	   -270.16610778	  -1041.39134111	      0.00000000	      0.00000000	      0.00000000	   2386.34224009	      6.14155099	     -5.74845511	   -103.14885712	   -217.40238113	   -733.02087738	      0.00000000	      0.00000000	     -0.00000000	    -17.11501843	      0.00000000	     -0.00000000	      0.00000000	      0.00000000	      0.00000000	      0.00000000	      0.00000000	      0.00000000	      0.00000000
      2.06000000	      0.00000000	     -0.00000000	      0.00000000	      0.00000000	      0.00000000	      0.00000000	      0.00000000	      0.00000000	      0.00000000	     -5.18313789	     41.59714127	   -947.75817871	   -271.34614875	  -1041.10993485	      0.00000000	      0.00000000	      0.00000000	   2550.21469962	      6.71889888	     -4.26246082	    -65.18486023	   -216.60060722	   -736.49246332	      0.00000000	      0.00000000	      0.00000000	    201.22558593	      0.00000000	     -0.00000000	      0.00000000	      0.00000000	      0.00000000	      0.00000000	      0.00000000	      0.00000000	      0.00000000
      2.07000000	      0.00000000	     -0.00000000	      0.00000000	      0.00000000	      0.00000000	      0.00000000	      0.00000000	      0.00000000	      0.00000000	     -3.58655691	     42.88984680	   -992.68109131	   -272.99191427	  -1041.31170087	      0.00000000	      0.00000000	      0.00000000	   3009.84085367	      5.19470662	     -3.37184737	    -34.72040939	   -214.59595974	   -752.64702413	      0.00000000	      0.00000000	      0.00000000	    277.72095049	      0.00000000	     -0.00000000	      0.00000000	      0.00000000	      0.00000000	      0.00000000	      0.00000000	      0.00000000	      0.00000000
